<svg width="13" height="12" viewBox="0 0 13 12" fill="none" xmlns="http://www.w3.org/2000/svg">
<path d="M5.11467 6.69264H1.83521C1.59372 6.69264 1.39795 6.88841 1.39795 7.12991V10.4094C1.39795 10.6509 1.59372 10.8466 1.83521 10.8466H5.11467C5.35616 10.8466 5.55193 10.6509 5.55193 10.4094V7.12991C5.55193 6.88843 5.35616 6.69264 5.11467 6.69264ZM4.67741 9.9721H2.27247V7.56717H4.67741V9.9721ZM5.11467 1.39935H1.83521C1.59372 1.39935 1.39795 1.59512 1.39795 1.83661V5.11607C1.39795 5.35756 1.59372 5.55333 1.83521 5.55333H5.11467C5.35616 5.55333 5.55193 5.35756 5.55193 5.11607V1.83661C5.55193 1.59511 5.35616 1.39935 5.11467 1.39935ZM4.67741 4.67881H2.27247V2.27387H4.67741V4.67881ZM10.544 6.69264H7.26459C7.0231 6.69264 6.82733 6.88841 6.82733 7.12991V10.4094C6.82733 10.6509 7.0231 10.8466 7.26459 10.8466H10.544C10.7855 10.8466 10.9813 10.6509 10.9813 10.4094V7.12991C10.9813 6.88843 10.7855 6.69264 10.544 6.69264ZM10.1068 9.9721H7.70185V7.56717H10.1068V9.9721ZM11.1265 3.19447L9.21351 1.28145C9.04274 1.11069 8.7659 1.11069 8.59512 1.28145L6.6821 3.19447C6.51135 3.36524 6.51135 3.64209 6.6821 3.81286L8.59512 5.72587C8.68051 5.81126 8.79241 5.85395 8.90432 5.85395C9.01623 5.85395 9.12813 5.81126 9.21351 5.72587L11.1265 3.81286C11.2973 3.64209 11.2973 3.36524 11.1265 3.19447ZM8.90432 4.79831L7.60968 3.50367L8.90432 2.20904L10.199 3.50367L8.90432 4.79831Z" fill="#0052D9"/>
</svg>
